g Cube-B
v 0.2733381 0 -0.4142576
v 0.2055128 0 -0.425
v -0.2055128 0 -0.425
v -0.2733381 0 -0.4142576
v 0.3345241 0 -0.3830817
v -0.3345241 0 -0.3830817
v 0.3830817 0 -0.3345241
v -0.3830817 0 -0.3345241
v 0.4142576 0 -0.2733381
v -0.4142576 0 -0.2733381
v 0.425 0 -0.2055128
v -0.425 0 -0.2055128
v 0.425 0 0.2055128
v -0.425 0 0.2055128
v 0.4142576 0 0.2733381
v -0.4142576 0 0.2733381
v 0.3830817 0 0.3345241
v -0.3830817 0 0.3345241
v 0.3345241 0 0.3830817
v -0.3345241 0 0.3830817
v 0.2733381 0 0.4142576
v -0.2733381 0 0.4142576
v 0.2055128 0 0.425
v -0.2055128 0 0.425
v -0.425 0 -0.2055128
v -0.4142576 0 -0.2733381
v -0.4142576 0.2974999 -0.2733381
v -0.425 0.2974999 -0.2055128
v -0.425 0 0.2055128
v -0.425 0.2974999 0.2055128
v -0.4142576 0 0.2733381
v -0.4142576 0.2974999 0.2733381
v -0.3830817 0 0.3345241
v -0.3830817 0.2974999 0.3345241
v -0.3345241 0 0.3830817
v -0.3345241 0.2974999 0.3830817
v -0.4049121 0.346292 -0.2703016
v -0.4152947 0.346292 -0.204749
v -0.4152947 0.346292 0.204749
v -0.375132 0.346292 -0.3287483
v -0.3830817 0.2974999 -0.3345241
v -0.4049121 0.346292 0.2703016
v -0.3830817 0.2974999 0.3345241
v -0.3287483 0.346292 -0.375132
v -0.3345241 0.2974999 -0.3830817
v -0.375132 0.346292 0.3287483
v -0.3345241 0.2974999 0.3830817
v -0.2703016 0.346292 -0.4049121
v -0.2733381 0.2974999 -0.4142576
v -0.3876562 0.387656 -0.2025737
v -0.3782987 0.387656 -0.2616543
v -0.3524933 0.387656 -0.3123004
v -0.3876562 0.387656 0.2025737
v -0.3123004 0.387656 -0.3524933
v -0.2616544 0.387656 -0.3782987
v -0.3782987 0.387656 0.2616544
v -0.204749 0.346292 -0.4152947
v -0.2025737 0.387656 -0.3876562
v -0.2055128 0.2974999 -0.425
v -0.2733381 0 -0.4142576
v -0.2055128 0 -0.425
v 0.2055128 0.2974999 -0.425
v 0.2055128 0 -0.425
v 0.204749 0.346292 -0.4152947
v 0.2025737 0.387656 -0.3876562
v 0.2703016 0.346292 -0.4049121
v 0.2733381 0.2974999 -0.4142576
v 0.2616543 0.387656 -0.3782987
v 0.3287483 0.346292 -0.375132
v 0.3345241 0.2974999 -0.3830817
v 0.3123004 0.387656 -0.3524933
v 0.1993183 0.4152945 -0.3462922
v 0.2487129 0.4152945 -0.3384688
v 0.2876841 0.4152945 -0.3186119
v -0.1993183 0.4152945 -0.3462922
v -0.2487129 0.4152945 -0.3384688
v -0.2876841 0.4152945 -0.3186119
v -0.3186119 0.4152945 -0.2876841
v -0.3384688 0.4152945 -0.2487129
v -0.3462922 0.4152945 -0.1993183
v -0.3462922 0.4152945 0.1993183
v 0.1954782 0.4249999 -0.2975
v -0.1954782 0.4249999 -0.2975
v -0.2334474 0.4249999 -0.2914863
v 0.2334474 0.4249999 -0.2914863
v -0.2586473 0.4249999 -0.2786463
v 0.2586473 0.4249999 -0.2786463
v -0.2786463 0.4249999 -0.2586473
v 0.2786463 0.4249999 -0.2586473
v -0.2914863 0.4249999 -0.2334474
v 0.3186119 0.4152945 -0.2876841
v 0.2914863 0.4249999 -0.2334474
v -0.2975 0.4249999 -0.1954782
v 0.3524933 0.387656 -0.3123004
v 0.2975 0.4249999 -0.1954782
v 0.3384688 0.4152945 -0.2487129
v -0.2975 0.4249999 0.1954782
v 0.375132 0.346292 -0.3287483
v 0.3782987 0.387656 -0.2616544
v 0.3462922 0.4152945 -0.1993183
v 0.3830817 0.2974999 -0.3345241
v 0.3345241 0 -0.3830817
v 0.3830817 0 -0.3345241
v 0.4049121 0.346292 -0.2703016
v 0.4142576 0.2974999 -0.2733381
v 0.3876562 0.387656 -0.2025737
v 0.2975 0.4249999 0.1954782
v 0.4152947 0.346292 -0.204749
v 0.3462922 0.4152945 0.1993183
v 0.425 0.2974999 -0.2055128
v 0.4142576 0 -0.2733381
v 0.425 0 -0.2055128
v 0.3876562 0.387656 0.2025737
v 0.425 0.2974999 0.2055128
v 0.425 0 0.2055128
v 0.4152947 0.346292 0.204749
v 0.4049121 0.346292 0.2703016
v 0.4142576 0.2974999 0.2733381
v 0.3782987 0.387656 0.2616543
v 0.3384688 0.4152945 0.2487129
v 0.375132 0.346292 0.3287483
v 0.3830817 0.2974999 0.3345241
v 0.3524933 0.387656 0.3123004
v 0.3287483 0.346292 0.375132
v 0.3345241 0.2974999 0.3830817
v 0.2914863 0.4249999 0.2334474
v 0.3186119 0.4152945 0.2876841
v 0.3123004 0.387656 0.3524933
v -0.2914863 0.4249999 0.2334474
v 0.2786463 0.4249999 0.2586473
v 0.2876841 0.4152945 0.3186119
v -0.3384688 0.4152945 0.2487129
v -0.3524933 0.387656 0.3123004
v -0.3186119 0.4152945 0.2876841
v -0.3287483 0.346292 0.375132
v -0.2786463 0.4249999 0.2586473
v 0.2586473 0.4249999 0.2786463
v -0.3123004 0.387656 0.3524933
v -0.2586473 0.4249999 0.2786463
v -0.2876841 0.4152945 0.3186119
v -0.2733381 0.2974999 0.4142576
v -0.2703016 0.346292 0.4049121
v -0.2616543 0.387656 0.3782987
v -0.2487129 0.4152945 0.3384688
v -0.2334474 0.4249999 0.2914863
v 0.2334474 0.4249999 0.2914863
v -0.2733381 0 0.4142576
v -0.3345241 0 0.3830817
v -0.2055128 0 0.425
v -0.2055128 0.2974999 0.425
v 0.2055128 0 0.425
v -0.204749 0.346292 0.4152947
v 0.2055128 0.2974999 0.425
v 0.2733381 0 0.4142576
v 0.2733381 0.2974999 0.4142576
v -0.2025737 0.387656 0.3876562
v 0.204749 0.346292 0.4152947
v -0.1993183 0.4152945 0.3462922
v 0.2025737 0.387656 0.3876562
v -0.1954782 0.4249999 0.2975
v 0.1993183 0.4152945 0.3462922
v 0.2703016 0.346292 0.4049121
v 0.1954782 0.4249999 0.2975
v 0.2487129 0.4152945 0.3384688
v 0.2616544 0.387656 0.3782987
v 0.3345241 0 0.3830817
v 0.2733381 0 0.4142576
v 0.3830817 0 0.3345241
v 0.3830817 0.2974999 0.3345241
v 0.4142576 0 0.2733381
v 0.4142576 0.2974999 0.2733381
v 0.425 0 0.2055128
v 0.425 0.2974999 0.2055128
v -0.3830817 0 -0.3345241
v -0.3345241 0.2974999 -0.3830817
v -0.3830817 0.2974999 -0.3345241
v -0.3345241 0 -0.3830817
v -0.2733381 0.2974999 -0.4142576
v -0.2733381 0 -0.4142576
v -0.4142576 0 -0.2733381
v -0.3830817 0.2974999 -0.3345241
v -0.4142576 0.2974999 -0.2733381
v 0.3830817 0 -0.3345241
v 0.4142576 0 -0.2733381
v 0.4142576 0.2974999 -0.2733381
v 0.3830817 0.2974999 -0.3345241
v 0.2733381 0 -0.4142576
v 0.3345241 0 -0.3830817
v 0.3345241 0.2974999 -0.3830817
v 0.2733381 0.2974999 -0.4142576
v 0.2055128 0.2974999 -0.425
vt 0.8215742 0.9873617
vt 0.7417797 1
vt 0.2582203 1
vt 0.1784258 0.9873617
vt 0.8935578 0.9506844
vt 0.1064422 0.9506843
vt 0.9506844 0.8935578
vt 0.04931569 0.8935578
vt 0.9873617 0.8215742
vt 0.01263821 0.8215742
vt 1 0.7417797
vt 0 0.7417797
vt 1 0.2582203
vt 0 0.2582203
vt 0.9873617 0.1784258
vt 0.01263821 0.1784258
vt 0.9506843 0.1064422
vt 0.04931569 0.1064422
vt 0.8935578 0.04931569
vt 0.1064422 0.04931569
vt 0.8215742 0.01263821
vt 0.1784258 0.01263821
vt 0.7417797 0
vt 0.2582203 0
vt 0 0.7417797
vt 0.01263821 0.8215742
vt 0.01263821 0.8215742
vt 0 0.7417797
vt 0 0.2582203
vt 0 0.2582203
vt 0.01263821 0.1784258
vt 0.01263821 0.1784258
vt 0.04931569 0.1064422
vt 0.04931569 0.1064422
vt 0.1064422 0.04931569
vt 0.1064422 0.04931569
vt 0.01290727 0.8214868
vt 7.028718E-05 0.7417742
vt 7.028718E-05 0.2582258
vt 0.04954455 0.8933915
vt 0.04931569 0.8935578
vt 0.01290727 0.1785132
vt 0.04931569 0.1064422
vt 0.1066085 0.9504555
vt 0.1064422 0.9506843
vt 0.04954455 0.1066085
vt 0.1064422 0.04931569
vt 0.1785132 0.9870927
vt 0.1784258 0.9873617
vt 0.0002704467 0.7417585
vt 0.01367348 0.8212377
vt 0.05019633 0.892918
vt 0.0002704465 0.2582416
vt 0.107082 0.9498037
vt 0.1787621 0.9863265
vt 0.01367349 0.1787621
vt 0.2582258 0.9999297
vt 0.2582416 0.9997295
vt 0.2582203 1
vt 0.1784258 0.9873617
vt 0.2582203 1
vt 0.7417797 1
vt 0.7417797 1
vt 0.7417742 0.9999297
vt 0.7417584 0.9997295
vt 0.8214868 0.9870927
vt 0.8215742 0.9873618
vt 0.8212377 0.9863265
vt 0.8933915 0.9504554
vt 0.8935578 0.9506843
vt 0.892918 0.9498037
vt 0.7344922 0.9074027
vt 0.7926034 0.8981987
vt 0.8384518 0.8748375
vt 0.2655079 0.9074028
vt 0.2073966 0.8981984
vt 0.1615481 0.8748373
vt 0.1251624 0.8384517
vt 0.1018014 0.7926031
vt 0.09259747 0.7344924
vt 0.09259748 0.265508
vt 0.7299742 0.8499998
vt 0.2700257 0.8499998
vt 0.225356 0.8429249
vt 0.774644 0.8429251
vt 0.1957091 0.8278192
vt 0.8042908 0.827819
vt 0.1721809 0.804291
vt 0.8278192 0.804291
vt 0.157075 0.774644
vt 0.8748375 0.8384516
vt 0.8429251 0.774644
vt 0.15 0.7299743
vt 0.9498037 0.8929181
vt 0.85 0.7299743
vt 0.8981985 0.7926034
vt 0.15 0.2700256
vt 0.9504555 0.8933916
vt 0.9863265 0.8212379
vt 0.9074028 0.7344922
vt 0.9506844 0.8935578
vt 0.8935578 0.9506844
vt 0.9506844 0.8935578
vt 0.9870927 0.8214868
vt 0.9873617 0.8215741
vt 0.9997295 0.7417585
vt 0.8499998 0.2700256
vt 0.9999297 0.7417742
vt 0.9074026 0.2655079
vt 1 0.7417797
vt 0.9873617 0.8215742
vt 1 0.7417797
vt 0.9997295 0.2582416
vt 1 0.2582203
vt 1 0.2582203
vt 0.9999297 0.2582258
vt 0.9870927 0.1785132
vt 0.9873618 0.1784258
vt 0.9863265 0.1787622
vt 0.8981985 0.2073966
vt 0.9504554 0.1066085
vt 0.9506843 0.1064422
vt 0.9498037 0.107082
vt 0.8933915 0.04954455
vt 0.8935578 0.04931569
vt 0.8429251 0.2253561
vt 0.8748376 0.1615481
vt 0.8929179 0.05019633
vt 0.157075 0.225356
vt 0.8278191 0.195709
vt 0.8384519 0.1251624
vt 0.1018014 0.2073966
vt 0.05019633 0.107082
vt 0.1251624 0.1615481
vt 0.1066085 0.04954455
vt 0.1721809 0.1957091
vt 0.804291 0.1721809
vt 0.107082 0.05019633
vt 0.195709 0.1721809
vt 0.1615481 0.1251624
vt 0.1784258 0.01263821
vt 0.1785132 0.01290727
vt 0.1787622 0.01367348
vt 0.2073966 0.1018014
vt 0.225356 0.157075
vt 0.7746439 0.157075
vt 0.1784258 0.01263821
vt 0.1064422 0.04931569
vt 0.2582203 0
vt 0.2582203 0
vt 0.7417797 0
vt 0.2582258 7.028718E-05
vt 0.7417797 0
vt 0.8215742 0.01263821
vt 0.8215741 0.01263821
vt 0.2582416 0.0002704467
vt 0.7417742 7.028718E-05
vt 0.2655079 0.09259745
vt 0.7417585 0.0002704465
vt 0.2700257 0.15
vt 0.7344921 0.09259745
vt 0.8214868 0.01290727
vt 0.7299743 0.15
vt 0.7926034 0.1018014
vt 0.8212379 0.01367349
vt 0.8935578 0.04931569
vt 0.8215742 0.01263821
vt 0.9506843 0.1064422
vt 0.9506843 0.1064422
vt 0.9873617 0.1784258
vt 0.9873618 0.1784258
vt 1 0.2582203
vt 1 0.2582203
vt 0.04931569 0.8935578
vt 0.1064422 0.9506843
vt 0.04931569 0.8935578
vt 0.1064422 0.9506843
vt 0.1784258 0.9873618
vt 0.1784258 0.9873617
vt 0.01263821 0.8215742
vt 0.04931569 0.8935578
vt 0.01263821 0.8215742
vt 0.9506844 0.8935578
vt 0.9873617 0.8215742
vt 0.9873618 0.8215742
vt 0.9506844 0.8935579
vt 0.8215742 0.9873617
vt 0.8935578 0.9506844
vt 0.8935578 0.9506844
vt 0.8215742 0.9873618
vt 0.7417797 1
vn 0 -1 0
vn 0 -1 0
vn 0 -1 0
vn 0 -1 0
vn 0 -1 0
vn 0 -1 0
vn 0 -1 0
vn 0 -1 0
vn 0 -1 0
vn 0 -1 0
vn 0 -1 0
vn 0 -1 0
vn 0 -1 0
vn 0 -1 0
vn 0 -1 0
vn 0 -1 0
vn 0 -1 0
vn 0 -1 0
vn 0 -1 0
vn 0 -1 0
vn 0 -1 0
vn 0 -1 0
vn 0 -1 0
vn 0 -1 0
vn -0.9969174 0 -0.07845905
vn -0.9510565 0 -0.3090171
vn -0.9464558 0.09824184 -0.3075224
vn -0.9921348 0.09783434 -0.0780828
vn -0.9969174 0 0.07845905
vn -0.9921348 0.09783433 0.0780828
vn -0.9510565 0 0.3090171
vn -0.9464558 0.09824181 0.3075224
vn -0.8090169 0 0.5877853
vn -0.8051033 0.0982418 0.584942
vn -0.5877853 0 0.809017
vn -0.5849419 0.09824185 0.8051034
vn -0.8798649 0.3796143 -0.2858859
vn -0.9220538 0.3801983 -0.07256758
vn -0.9220538 0.3801983 0.07256758
vn -0.7484579 0.3796142 -0.5437865
vn -0.8051034 0.0982419 -0.584942
vn -0.879865 0.3796141 0.285886
vn -0.8051033 0.0982418 0.584942
vn -0.5437867 0.3796141 -0.7484578
vn -0.5849419 0.09824192 -0.8051034
vn -0.7484579 0.3796141 0.5437865
vn -0.5849419 0.09824185 0.8051034
vn -0.2858859 0.3796143 -0.879865
vn -0.3075224 0.09824198 -0.9464558
vn -0.708729 0.7032723 -0.05577856
vn -0.6777547 0.7015364 -0.2202162
vn -0.5765328 0.7015363 -0.4188754
vn -0.708729 0.7032723 0.05577855
vn -0.4188758 0.7015363 -0.5765327
vn -0.2202163 0.7015363 -0.6777549
vn -0.6777546 0.7015364 0.2202163
vn -0.07256749 0.3801982 -0.9220539
vn -0.05577845 0.7032722 -0.7087291
vn -0.07808286 0.09783439 -0.9921348
vn -0.3090171 0 -0.9510565
vn -0.07845916 0 -0.9969174
vn 0.07808284 0.09783438 -0.9921348
vn 0.07845916 0 -0.9969174
vn 0.07256746 0.3801982 -0.9220539
vn 0.05577846 0.7032722 -0.7087292
vn 0.2858858 0.3796143 -0.8798649
vn 0.3075224 0.09824196 -0.9464558
vn 0.2202162 0.7015363 -0.677755
vn 0.5437867 0.3796142 -0.7484578
vn 0.5849419 0.09824185 -0.8051034
vn 0.4188759 0.7015363 -0.5765328
vn 0.03059945 0.9208127 -0.3888031
vn 0.1221452 0.918565 -0.3759243
vn 0.232334 0.9185649 -0.3197804
vn -0.03059944 0.9208127 -0.3888031
vn -0.1221454 0.918565 -0.3759242
vn -0.2323342 0.9185649 -0.3197803
vn -0.3197804 0.9185649 -0.2323339
vn -0.3759242 0.918565 -0.1221453
vn -0.388803 0.9208127 -0.03059961
vn -0.3888029 0.9208127 0.0305996
vn 0.008046479 0.994727 -0.102242
vn -0.008046445 0.994727 -0.102242
vn -0.03288518 0.9943213 -0.1012103
vn 0.03288499 0.9943213 -0.1012102
vn -0.06255163 0.9943213 -0.08609457
vn 0.06255125 0.9943213 -0.08609462
vn -0.0860947 0.9943213 -0.06255137
vn 0.08609463 0.9943213 -0.06255137
vn -0.1012102 0.9943213 -0.03288523
vn 0.3197803 0.9185649 -0.232334
vn 0.1012104 0.9943213 -0.03288525
vn -0.102242 0.994727 -0.008046626
vn 0.576533 0.7015363 -0.4188756
vn 0.102242 0.994727 -0.008046626
vn 0.3759242 0.918565 -0.1221454
vn -0.102242 0.994727 0.008046626
vn 0.7484579 0.3796141 -0.5437865
vn 0.6777546 0.7015364 -0.2202163
vn 0.3888029 0.9208127 -0.0305996
vn 0.8051033 0.0982418 -0.584942
vn 0.5877853 0 -0.809017
vn 0.8090169 0 -0.5877853
vn 0.879865 0.3796141 -0.285886
vn 0.9464558 0.09824181 -0.3075224
vn 0.708729 0.7032723 -0.05577855
vn 0.102242 0.994727 0.008046626
vn 0.9220538 0.3801983 -0.07256758
vn 0.3888031 0.9208127 0.03059961
vn 0.9921348 0.09783433 -0.0780828
vn 0.9510565 0 -0.3090171
vn 0.9969174 0 -0.07845905
vn 0.708729 0.7032725 0.05577856
vn 0.9921348 0.09783434 0.0780828
vn 0.9969174 0 0.07845905
vn 0.9220538 0.3801983 0.07256758
vn 0.8798649 0.3796143 0.2858859
vn 0.9464558 0.09824184 0.3075224
vn 0.6777547 0.7015364 0.2202162
vn 0.3759242 0.918565 0.1221453
vn 0.7484579 0.3796142 0.5437865
vn 0.8051034 0.0982419 0.584942
vn 0.5765328 0.7015363 0.4188754
vn 0.5437867 0.3796141 0.7484578
vn 0.5849419 0.09824192 0.8051034
vn 0.1012102 0.9943213 0.03288523
vn 0.3197804 0.9185649 0.2323339
vn 0.4188758 0.7015363 0.5765327
vn -0.1012104 0.9943213 0.03288525
vn 0.08609472 0.9943213 0.06255137
vn 0.2323342 0.9185649 0.3197803
vn -0.3759242 0.918565 0.1221454
vn -0.576533 0.7015363 0.4188756
vn -0.3197803 0.9185649 0.232334
vn -0.5437867 0.3796142 0.7484578
vn -0.0860946 0.9943213 0.06255137
vn 0.06255166 0.9943213 0.08609457
vn -0.4188759 0.7015363 0.5765328
vn -0.06255122 0.9943213 0.08609462
vn -0.232334 0.9185649 0.3197804
vn -0.3075224 0.09824196 0.9464558
vn -0.2858858 0.3796143 0.8798649
vn -0.2202162 0.7015363 0.677755
vn -0.1221452 0.918565 0.3759243
vn -0.03288495 0.9943213 0.1012102
vn 0.03288522 0.9943213 0.1012103
vn -0.3090171 0 0.9510565
vn -0.5877853 0 0.809017
vn -0.07845916 0 0.9969174
vn -0.07808284 0.09783438 0.9921348
vn 0.07845916 0 0.9969174
vn -0.07256746 0.3801982 0.9220539
vn 0.07808286 0.09783439 0.9921348
vn 0.3090171 0 0.9510565
vn 0.3075224 0.09824198 0.9464558
vn -0.05577846 0.7032722 0.7087292
vn 0.07256749 0.3801982 0.9220539
vn -0.03059945 0.9208127 0.3888031
vn 0.05577845 0.7032722 0.7087291
vn -0.008046445 0.994727 0.102242
vn 0.03059944 0.9208127 0.3888031
vn 0.2858859 0.3796143 0.879865
vn 0.008046479 0.994727 0.102242
vn 0.1221454 0.918565 0.3759242
vn 0.2202163 0.7015363 0.6777549
vn 0.5877853 0 0.809017
vn 0.3090171 0 0.9510565
vn 0.8090169 0 0.5877853
vn 0.8051034 0.0982419 0.584942
vn 0.9510565 0 0.3090171
vn 0.9464558 0.09824184 0.3075224
vn 0.9969174 0 0.07845905
vn 0.9921348 0.09783434 0.0780828
vn -0.8090169 0 -0.5877853
vn -0.5849419 0.09824192 -0.8051034
vn -0.8051034 0.0982419 -0.584942
vn -0.5877853 0 -0.809017
vn -0.3075224 0.09824198 -0.9464558
vn -0.3090171 0 -0.9510565
vn -0.9510565 0 -0.3090171
vn -0.8051034 0.0982419 -0.584942
vn -0.9464558 0.09824184 -0.3075224
vn 0.8090169 0 -0.5877853
vn 0.9510565 0 -0.3090171
vn 0.9464558 0.09824181 -0.3075224
vn 0.8051033 0.0982418 -0.584942
vn 0.3090171 0 -0.9510565
vn 0.5877853 0 -0.809017
vn 0.5849419 0.09824185 -0.8051034
vn 0.3075224 0.09824196 -0.9464558
vn 0.07808284 0.09783438 -0.9921348
g Cube-B_0
f 3/3/3 2/2/2 1/1/1
f 1/1/1 4/4/4 3/3/3
f 1/1/1 5/5/5 4/4/4
f 5/5/5 6/6/6 4/4/4
f 5/5/5 7/7/7 6/6/6
f 7/7/7 8/8/8 6/6/6
f 7/7/7 9/9/9 8/8/8
f 9/9/9 10/10/10 8/8/8
f 9/9/9 11/11/11 10/10/10
f 11/11/11 12/12/12 10/10/10
f 11/11/11 13/13/13 12/12/12
f 13/13/13 14/14/14 12/12/12
f 13/13/13 15/15/15 14/14/14
f 15/15/15 16/16/16 14/14/14
f 15/15/15 17/17/17 16/16/16
f 17/17/17 18/18/18 16/16/16
f 17/17/17 19/19/19 18/18/18
f 19/19/19 20/20/20 18/18/18
f 19/19/19 21/21/21 20/20/20
f 21/21/21 22/22/22 20/20/20
f 21/21/21 23/23/23 22/22/22
f 23/23/23 24/24/24 22/22/22
f 27/27/27 26/26/26 25/25/25
f 28/28/28 27/27/27 25/25/25
f 28/28/28 25/25/25 29/29/29
f 30/30/30 28/28/28 29/29/29
f 30/30/30 29/29/29 31/31/31
f 32/32/32 30/30/30 31/31/31
f 32/32/32 31/31/31 33/33/33
f 34/34/34 32/32/32 33/33/33
f 34/34/34 33/33/33 35/35/35
f 36/36/36 34/34/34 35/35/35
f 27/27/27 28/28/28 37/37/37
f 28/28/28 30/30/30 38/38/38
f 28/28/28 38/38/38 37/37/37
f 30/30/30 32/32/32 39/39/39
f 30/30/30 39/39/39 38/38/38
f 27/27/27 37/37/37 40/40/40
f 41/41/41 27/27/27 40/40/40
f 32/32/32 42/42/42 39/39/39
f 32/32/32 43/43/43 42/42/42
f 41/41/41 40/40/40 44/44/44
f 45/45/45 41/41/41 44/44/44
f 43/43/43 46/46/46 42/42/42
f 43/43/43 47/47/47 46/46/46
f 45/45/45 44/44/44 48/48/48
f 49/49/49 45/45/45 48/48/48
f 38/38/38 39/39/39 50/50/50
f 37/37/37 38/38/38 51/51/51
f 38/38/38 50/50/50 51/51/51
f 40/40/40 37/37/37 52/52/52
f 37/37/37 51/51/51 52/52/52
f 39/39/39 42/42/42 53/53/53
f 39/39/39 53/53/53 50/50/50
f 44/44/44 40/40/40 54/54/54
f 40/40/40 52/52/52 54/54/54
f 48/48/48 44/44/44 55/55/55
f 44/44/44 54/54/54 55/55/55
f 42/42/42 56/56/56 53/53/53
f 42/42/42 46/46/46 56/56/56
f 49/49/49 48/48/48 57/57/57
f 48/48/48 55/55/55 58/58/58
f 57/57/57 48/48/48 58/58/58
f 59/59/59 49/49/49 57/57/57
f 49/49/49 59/59/59 60/60/60
f 59/59/59 61/61/61 60/60/60
f 59/59/59 62/62/62 61/61/61
f 62/62/62 63/63/63 61/61/61
f 59/59/59 57/57/57 64/64/64
f 62/62/62 59/59/59 64/64/64
f 57/57/57 58/58/58 65/65/65
f 64/64/64 57/57/57 65/65/65
f 62/62/62 64/64/64 66/66/66
f 67/67/67 62/62/62 66/66/66
f 64/64/64 65/65/65 68/68/68
f 66/66/66 64/64/64 68/68/68
f 67/67/67 66/66/66 69/69/69
f 70/70/70 67/67/67 69/69/69
f 66/66/66 68/68/68 71/71/71
f 69/69/69 66/66/66 71/71/71
f 65/65/65 58/58/58 72/72/72
f 68/68/68 65/65/65 73/73/73
f 65/65/65 72/72/72 73/73/73
f 71/71/71 68/68/68 74/74/74
f 68/68/68 73/73/73 74/74/74
f 58/58/58 75/75/75 72/72/72
f 58/58/58 55/55/55 75/75/75
f 55/55/55 76/76/76 75/75/75
f 55/55/55 54/54/54 76/76/76
f 54/54/54 77/77/77 76/76/76
f 54/54/54 52/52/52 77/77/77
f 52/52/52 78/78/78 77/77/77
f 52/52/52 51/51/51 78/78/78
f 51/51/51 79/79/79 78/78/78
f 51/51/51 50/50/50 79/79/79
f 50/50/50 80/80/80 79/79/79
f 50/50/50 53/53/53 80/80/80
f 53/53/53 81/81/81 80/80/80
f 53/53/53 56/56/56 81/81/81
f 72/72/72 75/75/75 82/82/82
f 75/75/75 76/76/76 83/83/83
f 75/75/75 83/83/83 82/82/82
f 76/76/76 84/84/84 83/83/83
f 76/76/76 77/77/77 84/84/84
f 82/82/82 83/83/83 84/84/84
f 72/72/72 82/82/82 85/85/85
f 84/84/84 85/85/85 82/82/82
f 73/73/73 72/72/72 85/85/85
f 77/77/77 86/86/86 84/84/84
f 84/84/84 86/86/86 85/85/85
f 77/77/77 78/78/78 86/86/86
f 73/73/73 85/85/85 87/87/87
f 86/86/86 87/87/87 85/85/85
f 74/74/74 73/73/73 87/87/87
f 78/78/78 88/88/88 86/86/86
f 86/86/86 88/88/88 87/87/87
f 78/78/78 79/79/79 88/88/88
f 74/74/74 87/87/87 89/89/89
f 88/88/88 89/89/89 87/87/87
f 79/79/79 90/90/90 88/88/88
f 88/88/88 90/90/90 89/89/89
f 79/79/79 80/80/80 90/90/90
f 91/91/91 74/74/74 89/89/89
f 71/71/71 74/74/74 91/91/91
f 90/90/90 92/92/92 89/89/89
f 91/91/91 89/89/89 92/92/92
f 80/80/80 93/93/93 90/90/90
f 80/80/80 81/81/81 93/93/93
f 94/94/94 71/71/71 91/91/91
f 69/69/69 71/71/71 94/94/94
f 90/90/90 95/95/95 92/92/92
f 90/90/90 93/93/93 95/95/95
f 96/96/96 91/91/91 92/92/92
f 94/94/94 91/91/91 96/96/96
f 96/96/96 92/92/92 95/95/95
f 81/81/81 97/97/97 93/93/93
f 93/93/93 97/97/97 95/95/95
f 98/98/98 69/69/69 94/94/94
f 70/70/70 69/69/69 98/98/98
f 99/99/99 94/94/94 96/96/96
f 98/98/98 94/94/94 99/99/99
f 100/100/100 96/96/96 95/95/95
f 99/99/99 96/96/96 100/100/100
f 101/101/101 70/70/70 98/98/98
f 70/70/70 101/101/101 102/102/102
f 101/101/101 103/103/103 102/102/102
f 101/101/101 98/98/98 104/104/104
f 104/104/104 98/98/98 99/99/99
f 105/105/105 101/101/101 104/104/104
f 104/104/104 99/99/99 106/106/106
f 106/106/106 99/99/99 100/100/100
f 100/100/100 95/95/95 107/107/107
f 97/97/97 107/107/107 95/95/95
f 105/105/105 104/104/104 108/108/108
f 108/108/108 104/104/104 106/106/106
f 106/106/106 100/100/100 109/109/109
f 109/109/109 100/100/100 107/107/107
f 110/110/110 105/105/105 108/108/108
f 105/105/105 110/110/110 111/111/111
f 110/110/110 112/112/112 111/111/111
f 108/108/108 106/106/106 113/113/113
f 113/113/113 106/106/106 109/109/109
f 110/110/110 114/114/114 112/112/112
f 114/114/114 115/115/115 112/112/112
f 110/110/110 108/108/108 116/116/116
f 114/114/114 110/110/110 116/116/116
f 116/116/116 108/108/108 113/113/113
f 114/114/114 116/116/116 117/117/117
f 118/118/118 114/114/114 117/117/117
f 116/116/116 113/113/113 119/119/119
f 117/117/117 116/116/116 119/119/119
f 113/113/113 109/109/109 120/120/120
f 119/119/119 113/113/113 120/120/120
f 118/118/118 117/117/117 121/121/121
f 122/122/122 118/118/118 121/121/121
f 117/117/117 119/119/119 123/123/123
f 121/121/121 117/117/117 123/123/123
f 122/122/122 121/121/121 124/124/124
f 125/125/125 122/122/122 124/124/124
f 120/120/120 109/109/109 126/126/126
f 109/109/109 107/107/107 126/126/126
f 119/119/119 120/120/120 127/127/127
f 123/123/123 119/119/119 127/127/127
f 121/121/121 123/123/123 128/128/128
f 124/124/124 121/121/121 128/128/128
f 129/129/129 126/126/126 107/107/107
f 97/97/97 129/129/129 107/107/107
f 120/120/120 126/126/126 130/130/130
f 127/127/127 120/120/120 130/130/130
f 129/129/129 130/130/130 126/126/126
f 123/123/123 127/127/127 131/131/131
f 128/128/128 123/123/123 131/131/131
f 132/132/132 129/129/129 97/97/97
f 81/81/81 132/132/132 97/97/97
f 56/56/56 132/132/132 81/81/81
f 56/56/56 133/133/133 132/132/132
f 46/46/46 133/133/133 56/56/56
f 132/132/132 134/134/134 129/129/129
f 133/133/133 134/134/134 132/132/132
f 46/46/46 135/135/135 133/133/133
f 47/47/47 135/135/135 46/46/46
f 129/129/129 136/136/136 130/130/130
f 134/134/134 136/136/136 129/129/129
f 127/127/127 130/130/130 137/137/137
f 131/131/131 127/127/127 137/137/137
f 133/133/133 138/138/138 134/134/134
f 135/135/135 138/138/138 133/133/133
f 136/136/136 139/139/139 130/130/130
f 139/139/139 137/137/137 130/130/130
f 134/134/134 140/140/140 136/136/136
f 138/138/138 140/140/140 134/134/134
f 140/140/140 139/139/139 136/136/136
f 47/47/47 141/141/141 135/135/135
f 135/135/135 142/142/142 138/138/138
f 141/141/141 142/142/142 135/135/135
f 138/138/138 143/143/143 140/140/140
f 142/142/142 143/143/143 138/138/138
f 140/140/140 144/144/144 139/139/139
f 143/143/143 144/144/144 140/140/140
f 139/139/139 145/145/145 137/137/137
f 144/144/144 145/145/145 139/139/139
f 131/131/131 137/137/137 146/146/146
f 145/145/145 146/146/146 137/137/137
f 141/141/141 47/47/47 147/147/147
f 47/47/47 148/148/148 147/147/147
f 141/141/141 147/147/147 149/149/149
f 150/150/150 141/141/141 149/149/149
f 141/141/141 150/150/150 142/142/142
f 150/150/150 149/149/149 151/151/151
f 142/142/142 152/152/152 143/143/143
f 150/150/150 152/152/152 142/142/142
f 153/153/153 150/150/150 151/151/151
f 150/150/150 153/153/153 152/152/152
f 153/153/153 151/151/151 154/154/154
f 155/155/155 153/153/153 154/154/154
f 152/152/152 156/156/156 143/143/143
f 143/143/143 156/156/156 144/144/144
f 153/153/153 157/157/157 152/152/152
f 153/153/153 155/155/155 157/157/157
f 152/152/152 157/157/157 156/156/156
f 156/156/156 158/158/158 144/144/144
f 144/144/144 158/158/158 145/145/145
f 157/157/157 159/159/159 156/156/156
f 156/156/156 159/159/159 158/158/158
f 158/158/158 160/160/160 145/145/145
f 145/145/145 160/160/160 146/146/146
f 158/158/158 161/161/161 160/160/160
f 159/159/159 161/161/161 158/158/158
f 157/157/157 162/162/162 159/159/159
f 155/155/155 162/162/162 157/157/157
f 160/160/160 163/163/163 146/146/146
f 161/161/161 163/163/163 160/160/160
f 164/164/164 146/146/146 163/163/163
f 161/161/161 164/164/164 163/163/163
f 164/164/164 131/131/131 146/146/146
f 128/128/128 131/131/131 164/164/164
f 159/159/159 165/165/165 161/161/161
f 165/165/165 164/164/164 161/161/161
f 165/165/165 128/128/128 164/164/164
f 162/162/162 165/165/165 159/159/159
f 124/124/124 128/128/128 165/165/165
f 162/162/162 124/124/124 165/165/165
f 125/125/125 124/124/124 162/162/162
f 155/155/155 125/125/125 162/162/162
f 125/125/125 155/155/155 166/166/166
f 155/155/155 167/167/167 166/166/166
f 125/125/125 166/166/166 168/168/168
f 169/169/169 125/125/125 168/168/168
f 169/169/169 168/168/168 170/170/170
f 171/171/171 169/169/169 170/170/170
f 171/171/171 170/170/170 172/172/172
f 173/173/173 171/171/171 172/172/172
f 176/176/176 175/175/175 174/174/174
f 175/175/175 177/177/177 174/174/174
f 175/175/175 178/178/178 177/177/177
f 178/178/178 179/179/179 177/177/177
f 181/181/181 174/174/174 180/180/180
f 182/182/182 181/181/181 180/180/180
f 185/185/185 184/184/184 183/183/183
f 186/186/186 185/185/185 183/183/183
f 189/189/189 188/188/188 187/187/187
f 190/190/190 189/189/189 187/187/187
f 190/190/190 187/187/187 63/63/63
f 191/191/191 190/190/190 63/63/63
